<svg xmlns="http://www.w3.org/2000/svg" width="180" height="180" viewBox="0 0 64 64">
  <defs>
    <linearGradient id="g" x1="0.1" y1="0" x2="0.9" y2="1">
      <stop offset="0%" stop-color="#0ea5e9"/>
      <stop offset="100%" stop-color="#0369a1"/>
    </linearGradient>
    <linearGradient id="g2" x1="0" y1="0" x2="1" y2="1">
      <stop offset="0%" stop-color="#38bdf8"/>
      <stop offset="100%" stop-color="#0ea5e9"/>
    </linearGradient>
  </defs>
  <g transform="translate(4, 10) rotate(3, 32, 32)">
    <rect x="8" y="22" width="48" height="28" rx="4" fill="url(#g)" opacity="0.45"/>
    <rect x="8" y="22" width="6" height="28" rx="2" fill="#0284c7" opacity="0.7"/>
  </g>
  <g transform="translate(2, 5) rotate(-2, 32, 32)">
    <rect x="8" y="18" width="48" height="28" rx="4" fill="url(#g2)" opacity="0.7"/>
    <rect x="8" y="18" width="6" height="28" rx="2" fill="#0ea5e9" opacity="0.85"/>
    <line x1="17" y1="24" x2="52" y2="24" stroke="#e0f2fe" stroke-width="1" opacity="0.35"/>
    <line x1="17" y1="30" x2="40" y2="30" stroke="#e0f2fe" stroke-width="0.8" opacity="0.25"/>
  </g>
  <g transform="rotate(1.5, 32, 32)">
    <rect x="8" y="14" width="48" height="28" rx="4" fill="url(#g)"/>
    <rect x="8" y="14" width="6" height="28" rx="2" fill="#0284c7"/>
    <line x1="18" y1="21" x2="52" y2="21" stroke="#bae6fd" stroke-width="1.2" opacity="0.5"/>
    <line x1="18" y1="28" x2="44" y2="28" stroke="#bae6fd" stroke-width="1" opacity="0.35"/>
    <line x1="18" y1="35" x2="48" y2="35" stroke="#bae6fd" stroke-width="0.8" opacity="0.2"/>
  </g>
  <rect x="30" y="8" width="4" height="12" rx="1" fill="#fbbf24" opacity="0.9"/>
  <rect x="29.5" y="8" width="5" height="3" rx="1" fill="#f59e0b"/>
</svg>
